<svg width="195" height="43" viewBox="0 0 195 43" fill="none" xmlns="http://www.w3.org/2000/svg">
<g clip-path="url(#clip0_207_155)">
<g clip-path="url(#clip1_207_155)">
<path d="M105.768 10.4899H101.564L110.24 32.7616H110.394L116.962 15.9481L123.555 32.7616H123.773L132.449 10.4899H130.877L124.616 26.5506L118.086 10.0508H117.958L111.748 25.7727L105.768 10.4899Z" fill="#0F010C"/>
<path d="M76.0321 0.452148V32.1093H71.9558V0.452148H76.0321Z" fill="#0F010C"/>
<path d="M79.4823 21.745C79.4823 15.0447 84.0315 10.4648 90.9318 10.4648C97.8322 10.4648 101.794 14.5929 101.794 21.2556C101.794 27.9183 97.2444 32.6989 90.4335 32.6989C83.6225 32.6989 79.4951 28.5206 79.4951 21.745H79.4823ZM91.3919 32.1217C95.0082 32.1217 97.3722 29.2232 97.3722 22.5731C97.3722 15.923 94.4715 11.042 90.0885 11.042C85.7054 11.042 83.9037 13.815 83.9037 20.5028C83.9037 27.1905 86.9322 32.1217 91.3919 32.1217Z" fill="#0F010C"/>
<path d="M30.694 31.9834H26.6304V30.9545V13.4007V12.9489V12.7231L30.6684 10.4144H30.7067V31.9834H30.694ZM28.6494 3.56348C30.1573 3.56348 31.2562 4.59236 31.2562 5.99768C31.2562 7.40299 30.1701 8.46952 28.6494 8.46952C27.1288 8.46952 26.0426 7.40299 26.0426 5.99768C26.0426 4.59236 27.0904 3.56348 28.6494 3.56348Z" fill="#0F010C"/>
<path d="M35.0259 12.7613L39.0639 10.4902H39.1022V14.4803C42.463 12.0461 45.1848 10.5028 47.4083 10.5028C50.769 10.5028 52.903 12.7237 52.903 16.4001V31.8585V32.0592H48.7883V31.0304V17.0651C48.7883 14.1792 47.191 12.8241 44.8398 12.8241C42.4885 12.8241 41.2746 13.5393 39.0894 15.0199V31.8585V32.0592H35.0131V31.0304V13.4765V12.7613H35.0259Z" fill="#0F010C"/>
<path d="M25.6592 2.70996H22.3496L13.788 15.1695L5.89089 3.7263L5.22641 2.70996H0L0.690039 3.7263L10.7084 17.9927V31.0044L10.7212 31.8325V32.0584H15.117V31.82V31.0044V17.9802L25.6592 2.70996Z" fill="#0F010C"/>
<path d="M62.7808 31.9835H58.6533V30.9546V12.6103H55.3309V11.0042H58.6661C58.845 3.60126 62.8064 0.0126953 66.4482 0.0126953C70.0901 0.0126953 69.0551 0.840825 69.0551 2.08302C69.0551 3.32521 68.595 3.48833 68.3778 3.77692C67.2788 3.23738 66.2054 2.78567 64.4037 2.78567C62.6019 2.78567 61.3241 4.66779 61.209 6.29895C61.0813 8.05559 61.4391 9.59892 62.1163 11.0042H68.2628V12.6103H62.7936V31.9961L62.7808 31.9835Z" fill="#0F010C"/>
<path d="M132.117 32.7616C132.896 32.7616 133.574 32.4479 134.008 31.9209C134.379 31.5445 134.596 31.0301 134.596 30.4529C134.596 29.8757 134.392 29.424 134.059 29.0601C133.625 28.5206 132.948 28.1943 132.117 28.1943C130.724 28.1943 129.702 29.1479 129.702 30.4529C129.702 31.7578 130.711 32.749 132.117 32.749V32.7616Z" fill="#0F010C"/>
<path d="M155.604 32.0586H138.787L142.979 2.64746H146.48L142.761 29.4487H156.128L155.604 32.0586Z" fill="#0F010C"/>
<path d="M181.353 1.55582C181.263 1.49308 181.059 1.38015 180.714 1.1794C180.369 0.978638 179.909 0.790426 179.334 0.602215C178.759 0.414004 178.12 0.326172 177.43 0.326172C175.398 0.326172 173.826 0.978638 172.778 2.27102C171.73 3.55086 171.002 5.55844 170.606 8.26869L170.197 11.1546H167.986L167.654 13.4006H169.865L166.964 33.7399C166.606 36.262 166.069 38.0939 165.367 39.1855C164.689 40.2521 163.808 40.7916 162.76 40.7916C161.712 40.7916 162.044 40.7414 161.763 40.6536C161.482 40.5657 161.265 40.4654 161.124 40.365C160.92 40.2144 160.869 40.1768 160.869 40.1642L160.741 40.0513L159.744 41.971L159.77 42.0338C159.795 42.084 159.872 42.1718 160.179 42.3726C160.396 42.5231 160.728 42.6612 161.188 42.7992C161.635 42.9372 162.21 43.0125 162.9 43.0125C166.938 43.0125 169.43 39.9133 170.325 33.7901L173.238 13.4131H179.346L179.679 11.117H173.57L173.928 8.63256C174.145 7.01395 174.439 5.73411 174.772 4.83069C175.104 3.93983 175.5 3.31246 175.96 2.97368C176.42 2.6349 177.008 2.45923 177.711 2.45923C178.413 2.45923 178.631 2.52197 179.052 2.65999C179.474 2.79801 179.832 2.93603 180.087 3.0866C180.42 3.27481 180.522 3.3501 180.548 3.37519L180.688 3.50067L181.48 1.60601L181.391 1.54327L181.353 1.55582Z" fill="#0F010C"/>
<path d="M183.001 22.7737C186.311 22.7737 189.147 22.3597 191.46 21.5441C193.812 20.7034 195 18.9593 195 16.3244C195 13.6894 194.412 13.4008 193.237 12.3217C192.074 11.2552 190.464 10.7031 188.47 10.7031C186.477 10.7031 184.471 11.2678 182.86 12.3719C181.25 13.4761 179.985 15.0696 179.091 17.0898C178.196 19.1099 177.749 21.4563 177.749 24.0661C177.749 26.676 178.529 28.9345 180.075 30.4026C181.621 31.8581 183.678 32.5984 186.183 32.5984C188.687 32.5984 189.045 32.3474 190.119 31.8581C191.192 31.3687 192.01 30.8166 192.61 30.252C193.339 29.5744 193.492 29.3109 193.543 29.2106L193.556 29.1729L192.253 28.0311C192.253 28.0311 191.959 28.395 191.499 28.8216C191.039 29.2357 190.413 29.6372 189.607 29.9885C188.802 30.3398 187.844 30.5155 186.732 30.5155C185.046 30.5155 183.691 30.0136 182.694 29.0098C181.698 28.0186 181.186 26.4752 181.186 24.43C181.186 22.3848 181.186 23.1502 181.225 22.7612H183.014L183.001 22.7737ZM188.087 12.7358C189.314 12.7358 190.285 13.062 190.962 13.702C191.639 14.3419 191.984 15.17 191.984 16.1487C191.984 18.1061 191.166 19.3608 189.505 19.9882C187.818 20.6156 185.659 20.9418 183.09 20.9418H181.416C181.787 18.3821 182.554 16.3495 183.704 14.9191C184.854 13.4761 186.336 12.7358 188.1 12.7358H188.087Z" fill="#0F010C"/>
<path d="M161.623 11.1172L158.62 32.1843H161.929L164.932 11.1172H161.623Z" fill="#0F010C"/>
<path d="M163.923 8.57019C164.702 8.57019 165.379 8.24396 165.814 7.72951C166.184 7.35309 166.402 6.83865 166.402 6.26147C166.402 5.68428 166.197 5.23258 165.865 4.8687C165.431 4.32916 164.741 4.00293 163.923 4.00293C162.517 4.00293 161.508 4.95653 161.508 6.27401C161.508 7.59149 162.53 8.58274 163.923 8.58274V8.57019Z" fill="#0F010C"/>
</g>
</g>
<defs>
<clipPath id="clip0_207_155">
<rect width="195" height="43" fill="white"/>
</clipPath>
<clipPath id="clip1_207_155">
<rect width="195" height="43" fill="white"/>
</clipPath>
</defs>
</svg>
